<?xml version="1.0" encoding="utf-8"?>
<svg xmlns="http://www.w3.org/2000/svg" xmlns:xlink="http://www.w3.org/1999/xlink" width="600" height="400" viewBox="0 0 2400 1600">
<defs>
  <clipPath id="clip040">
    <rect x="0" y="0" width="2400" height="1600"/>
  </clipPath>
</defs>
<path clip-path="url(#clip040)" d="
M0 1600 L2400 1600 L2400 0 L0 0  Z
  " fill="#ffffff" fill-rule="evenodd" fill-opacity="1"/>
<defs>
  <clipPath id="clip041">
    <rect x="480" y="0" width="1681" height="1600"/>
  </clipPath>
</defs>
<path clip-path="url(#clip040)" d="
M232.389 1486.45 L2352.76 1486.45 L2352.76 47.2441 L232.389 47.2441  Z
  " fill="#ffffff" fill-rule="evenodd" fill-opacity="1"/>
<defs>
  <clipPath id="clip042">
    <rect x="232" y="47" width="2121" height="1440"/>
  </clipPath>
</defs>
<polyline clip-path="url(#clip042)" style="stroke:#000000; stroke-linecap:butt; stroke-linejoin:round; stroke-width:2; stroke-opacity:0.1; fill:none" points="
  543.192,1486.45 543.192,47.2441 
  "/>
<polyline clip-path="url(#clip042)" style="stroke:#000000; stroke-linecap:butt; stroke-linejoin:round; stroke-width:2; stroke-opacity:0.1; fill:none" points="
  1042.78,1486.45 1042.78,47.2441 
  "/>
<polyline clip-path="url(#clip042)" style="stroke:#000000; stroke-linecap:butt; stroke-linejoin:round; stroke-width:2; stroke-opacity:0.1; fill:none" points="
  1542.37,1486.45 1542.37,47.2441 
  "/>
<polyline clip-path="url(#clip042)" style="stroke:#000000; stroke-linecap:butt; stroke-linejoin:round; stroke-width:2; stroke-opacity:0.1; fill:none" points="
  2041.95,1486.45 2041.95,47.2441 
  "/>
<polyline clip-path="url(#clip040)" style="stroke:#000000; stroke-linecap:butt; stroke-linejoin:round; stroke-width:4; stroke-opacity:1; fill:none" points="
  232.389,1486.45 2352.76,1486.45 
  "/>
<polyline clip-path="url(#clip040)" style="stroke:#000000; stroke-linecap:butt; stroke-linejoin:round; stroke-width:4; stroke-opacity:1; fill:none" points="
  543.192,1486.45 543.192,1469.18 
  "/>
<polyline clip-path="url(#clip040)" style="stroke:#000000; stroke-linecap:butt; stroke-linejoin:round; stroke-width:4; stroke-opacity:1; fill:none" points="
  1042.78,1486.45 1042.78,1469.18 
  "/>
<polyline clip-path="url(#clip040)" style="stroke:#000000; stroke-linecap:butt; stroke-linejoin:round; stroke-width:4; stroke-opacity:1; fill:none" points="
  1542.37,1486.45 1542.37,1469.18 
  "/>
<polyline clip-path="url(#clip040)" style="stroke:#000000; stroke-linecap:butt; stroke-linejoin:round; stroke-width:4; stroke-opacity:1; fill:none" points="
  2041.95,1486.45 2041.95,1469.18 
  "/>
<path clip-path="url(#clip040)" d="M459.223 1515.22 L459.223 1520.15 Q456.862 1517.95 454.177 1516.87 Q451.515 1515.78 448.505 1515.78 Q442.579 1515.78 439.431 1519.41 Q436.283 1523.02 436.283 1529.87 Q436.283 1536.7 439.431 1540.34 Q442.579 1543.95 448.505 1543.95 Q451.515 1543.95 454.177 1542.86 Q456.862 1541.77 459.223 1539.57 L459.223 1544.46 Q456.769 1546.12 454.015 1546.96 Q451.283 1547.79 448.228 1547.79 Q440.38 1547.79 435.867 1543 Q431.353 1538.18 431.353 1529.87 Q431.353 1521.54 435.867 1516.75 Q440.38 1511.93 448.228 1511.93 Q451.329 1511.93 454.061 1512.77 Q456.815 1513.58 459.223 1515.22 Z" fill="#000000" fill-rule="evenodd" fill-opacity="1" /><path clip-path="url(#clip040)" d="M476.306 1524.18 Q472.88 1524.18 470.889 1526.87 Q468.899 1529.53 468.899 1534.18 Q468.899 1538.83 470.866 1541.52 Q472.857 1544.18 476.306 1544.18 Q479.709 1544.18 481.7 1541.49 Q483.69 1538.81 483.69 1534.18 Q483.69 1529.57 481.7 1526.89 Q479.709 1524.18 476.306 1524.18 M476.306 1520.57 Q481.862 1520.57 485.033 1524.18 Q488.204 1527.79 488.204 1534.18 Q488.204 1540.55 485.033 1544.18 Q481.862 1547.79 476.306 1547.79 Q470.727 1547.79 467.556 1544.18 Q464.408 1540.55 464.408 1534.18 Q464.408 1527.79 467.556 1524.18 Q470.727 1520.57 476.306 1520.57 Z" fill="#000000" fill-rule="evenodd" fill-opacity="1" /><path clip-path="url(#clip040)" d="M495.264 1511.1 L499.524 1511.1 L499.524 1547.12 L495.264 1547.12 L495.264 1511.1 Z" fill="#000000" fill-rule="evenodd" fill-opacity="1" /><path clip-path="url(#clip040)" d="M518.482 1524.18 Q515.056 1524.18 513.065 1526.87 Q511.074 1529.53 511.074 1534.18 Q511.074 1538.83 513.042 1541.52 Q515.033 1544.18 518.482 1544.18 Q521.885 1544.18 523.875 1541.49 Q525.866 1538.81 525.866 1534.18 Q525.866 1529.57 523.875 1526.89 Q521.885 1524.18 518.482 1524.18 M518.482 1520.57 Q524.037 1520.57 527.209 1524.18 Q530.38 1527.79 530.38 1534.18 Q530.38 1540.55 527.209 1544.18 Q524.037 1547.79 518.482 1547.79 Q512.903 1547.79 509.732 1544.18 Q506.584 1540.55 506.584 1534.18 Q506.584 1527.79 509.732 1524.18 Q512.903 1520.57 518.482 1520.57 Z" fill="#000000" fill-rule="evenodd" fill-opacity="1" /><path clip-path="url(#clip040)" d="M552.463 1525.18 Q551.746 1524.76 550.889 1524.57 Q550.056 1524.37 549.037 1524.37 Q545.426 1524.37 543.482 1526.73 Q541.56 1529.06 541.56 1533.46 L541.56 1547.12 L537.278 1547.12 L537.278 1521.19 L541.56 1521.19 L541.56 1525.22 Q542.903 1522.86 545.056 1521.73 Q547.209 1520.57 550.287 1520.57 Q550.727 1520.57 551.259 1520.64 Q551.792 1520.68 552.44 1520.8 L552.463 1525.18 Z" fill="#000000" fill-rule="evenodd" fill-opacity="1" /><path clip-path="url(#clip040)" d="M576.63 1543.18 L592.949 1543.18 L592.949 1547.12 L571.005 1547.12 L571.005 1543.18 Q573.667 1540.43 578.25 1535.8 Q582.856 1531.15 584.037 1529.81 Q586.282 1527.28 587.162 1525.55 Q588.065 1523.79 588.065 1522.1 Q588.065 1519.34 586.12 1517.61 Q584.199 1515.87 581.097 1515.87 Q578.898 1515.87 576.444 1516.63 Q574.014 1517.4 571.236 1518.95 L571.236 1514.23 Q574.06 1513.09 576.514 1512.51 Q578.968 1511.93 581.005 1511.93 Q586.375 1511.93 589.569 1514.62 Q592.764 1517.31 592.764 1521.8 Q592.764 1523.93 591.954 1525.85 Q591.167 1527.74 589.06 1530.34 Q588.481 1531.01 585.38 1534.23 Q582.278 1537.42 576.63 1543.18 Z" fill="#000000" fill-rule="evenodd" fill-opacity="1" /><path clip-path="url(#clip040)" d="M602.81 1512.56 L621.166 1512.56 L621.166 1516.5 L607.092 1516.5 L607.092 1524.97 Q608.111 1524.62 609.129 1524.46 Q610.148 1524.27 611.167 1524.27 Q616.954 1524.27 620.333 1527.44 Q623.713 1530.62 623.713 1536.03 Q623.713 1541.61 620.241 1544.71 Q616.768 1547.79 610.449 1547.79 Q608.273 1547.79 606.004 1547.42 Q603.759 1547.05 601.352 1546.31 L601.352 1541.61 Q603.435 1542.74 605.657 1543.3 Q607.879 1543.86 610.356 1543.86 Q614.361 1543.86 616.699 1541.75 Q619.037 1539.64 619.037 1536.03 Q619.037 1532.42 616.699 1530.31 Q614.361 1528.21 610.356 1528.21 Q608.481 1528.21 606.606 1528.62 Q604.754 1529.04 602.81 1529.92 L602.81 1512.56 Z" fill="#000000" fill-rule="evenodd" fill-opacity="1" /><path clip-path="url(#clip040)" d="M643.504 1527.98 Q640.356 1527.98 638.504 1530.13 Q636.676 1532.28 636.676 1536.03 Q636.676 1539.76 638.504 1541.93 Q640.356 1544.09 643.504 1544.09 Q646.652 1544.09 648.481 1541.93 Q650.333 1539.76 650.333 1536.03 Q650.333 1532.28 648.481 1530.13 Q646.652 1527.98 643.504 1527.98 M652.787 1513.32 L652.787 1517.58 Q651.027 1516.75 649.222 1516.31 Q647.439 1515.87 645.68 1515.87 Q641.051 1515.87 638.597 1519 Q636.166 1522.12 635.819 1528.44 Q637.185 1526.43 639.245 1525.36 Q641.305 1524.27 643.782 1524.27 Q648.99 1524.27 652 1527.44 Q655.032 1530.59 655.032 1536.03 Q655.032 1541.36 651.884 1544.57 Q648.736 1547.79 643.504 1547.79 Q637.509 1547.79 634.338 1543.21 Q631.166 1538.6 631.166 1529.87 Q631.166 1521.68 635.055 1516.82 Q638.944 1511.93 645.495 1511.93 Q647.254 1511.93 649.037 1512.28 Q650.842 1512.63 652.787 1513.32 Z" fill="#000000" fill-rule="evenodd" fill-opacity="1" /><path clip-path="url(#clip040)" d="M959.689 1515.22 L959.689 1520.15 Q957.328 1517.95 954.643 1516.87 Q951.981 1515.78 948.972 1515.78 Q943.046 1515.78 939.898 1519.41 Q936.75 1523.02 936.75 1529.87 Q936.75 1536.7 939.898 1540.34 Q943.046 1543.95 948.972 1543.95 Q951.981 1543.95 954.643 1542.86 Q957.328 1541.77 959.689 1539.57 L959.689 1544.46 Q957.236 1546.12 954.481 1546.96 Q951.75 1547.79 948.694 1547.79 Q940.847 1547.79 936.333 1543 Q931.819 1538.18 931.819 1529.87 Q931.819 1521.54 936.333 1516.75 Q940.847 1511.93 948.694 1511.93 Q951.796 1511.93 954.527 1512.77 Q957.282 1513.58 959.689 1515.22 Z" fill="#000000" fill-rule="evenodd" fill-opacity="1" /><path clip-path="url(#clip040)" d="M976.773 1524.18 Q973.347 1524.18 971.356 1526.87 Q969.365 1529.53 969.365 1534.18 Q969.365 1538.83 971.333 1541.52 Q973.324 1544.18 976.773 1544.18 Q980.175 1544.18 982.166 1541.49 Q984.157 1538.81 984.157 1534.18 Q984.157 1529.57 982.166 1526.89 Q980.175 1524.18 976.773 1524.18 M976.773 1520.57 Q982.328 1520.57 985.499 1524.18 Q988.671 1527.79 988.671 1534.18 Q988.671 1540.55 985.499 1544.18 Q982.328 1547.79 976.773 1547.79 Q971.194 1547.79 968.023 1544.18 Q964.875 1540.55 964.875 1534.18 Q964.875 1527.79 968.023 1524.18 Q971.194 1520.57 976.773 1520.57 Z" fill="#000000" fill-rule="evenodd" fill-opacity="1" /><path clip-path="url(#clip040)" d="M995.731 1511.1 L999.99 1511.1 L999.99 1547.12 L995.731 1547.12 L995.731 1511.1 Z" fill="#000000" fill-rule="evenodd" fill-opacity="1" /><path clip-path="url(#clip040)" d="M1018.95 1524.18 Q1015.52 1524.18 1013.53 1526.87 Q1011.54 1529.53 1011.54 1534.18 Q1011.54 1538.83 1013.51 1541.52 Q1015.5 1544.18 1018.95 1544.18 Q1022.35 1544.18 1024.34 1541.49 Q1026.33 1538.81 1026.33 1534.18 Q1026.33 1529.57 1024.34 1526.89 Q1022.35 1524.18 1018.95 1524.18 M1018.95 1520.57 Q1024.5 1520.57 1027.68 1524.18 Q1030.85 1527.79 1030.85 1534.18 Q1030.85 1540.55 1027.68 1544.18 Q1024.5 1547.79 1018.95 1547.79 Q1013.37 1547.79 1010.2 1544.18 Q1007.05 1540.55 1007.05 1534.18 Q1007.05 1527.79 1010.2 1524.18 Q1013.37 1520.57 1018.95 1520.57 Z" fill="#000000" fill-rule="evenodd" fill-opacity="1" /><path clip-path="url(#clip040)" d="M1052.93 1525.18 Q1052.21 1524.76 1051.36 1524.57 Q1050.52 1524.37 1049.5 1524.37 Q1045.89 1524.37 1043.95 1526.73 Q1042.03 1529.06 1042.03 1533.46 L1042.03 1547.12 L1037.74 1547.12 L1037.74 1521.19 L1042.03 1521.19 L1042.03 1525.22 Q1043.37 1522.86 1045.52 1521.73 Q1047.68 1520.57 1050.75 1520.57 Q1051.19 1520.57 1051.73 1520.64 Q1052.26 1520.68 1052.91 1520.8 L1052.93 1525.18 Z" fill="#000000" fill-rule="evenodd" fill-opacity="1" /><path clip-path="url(#clip040)" d="M1073.11 1512.56 L1091.47 1512.56 L1091.47 1516.5 L1077.4 1516.5 L1077.4 1524.97 Q1078.42 1524.62 1079.43 1524.46 Q1080.45 1524.27 1081.47 1524.27 Q1087.26 1524.27 1090.64 1527.44 Q1094.02 1530.62 1094.02 1536.03 Q1094.02 1541.61 1090.55 1544.71 Q1087.07 1547.79 1080.75 1547.79 Q1078.58 1547.79 1076.31 1547.42 Q1074.06 1547.05 1071.66 1546.31 L1071.66 1541.61 Q1073.74 1542.74 1075.96 1543.3 Q1078.18 1543.86 1080.66 1543.86 Q1084.67 1543.86 1087 1541.75 Q1089.34 1539.64 1089.34 1536.03 Q1089.34 1532.42 1087 1530.31 Q1084.67 1528.21 1080.66 1528.21 Q1078.79 1528.21 1076.91 1528.62 Q1075.06 1529.04 1073.11 1529.92 L1073.11 1512.56 Z" fill="#000000" fill-rule="evenodd" fill-opacity="1" /><path clip-path="url(#clip040)" d="M1104.04 1543.18 L1111.68 1543.18 L1111.68 1516.82 L1103.37 1518.49 L1103.37 1514.23 L1111.63 1512.56 L1116.31 1512.56 L1116.31 1543.18 L1123.95 1543.18 L1123.95 1547.12 L1104.04 1547.12 L1104.04 1543.18 Z" fill="#000000" fill-rule="evenodd" fill-opacity="1" /><path clip-path="url(#clip040)" d="M1137.42 1543.18 L1153.74 1543.18 L1153.74 1547.12 L1131.79 1547.12 L1131.79 1543.18 Q1134.46 1540.43 1139.04 1535.8 Q1143.65 1531.15 1144.83 1529.81 Q1147.07 1527.28 1147.95 1525.55 Q1148.86 1523.79 1148.86 1522.1 Q1148.86 1519.34 1146.91 1517.61 Q1144.99 1515.87 1141.89 1515.87 Q1139.69 1515.87 1137.23 1516.63 Q1134.8 1517.4 1132.03 1518.95 L1132.03 1514.23 Q1134.85 1513.09 1137.3 1512.51 Q1139.76 1511.93 1141.79 1511.93 Q1147.17 1511.93 1150.36 1514.62 Q1153.55 1517.31 1153.55 1521.8 Q1153.55 1523.93 1152.74 1525.85 Q1151.96 1527.74 1149.85 1530.34 Q1149.27 1531.01 1146.17 1534.23 Q1143.07 1537.42 1137.42 1543.18 Z" fill="#000000" fill-rule="evenodd" fill-opacity="1" /><path clip-path="url(#clip040)" d="M1461.3 1542.19 L1461.3 1532.91 L1453.66 1532.91 L1453.66 1529.06 L1465.93 1529.06 L1465.93 1543.9 Q1463.22 1545.82 1459.96 1546.82 Q1456.7 1547.79 1452.99 1547.79 Q1444.89 1547.79 1440.31 1543.07 Q1435.75 1538.32 1435.75 1529.87 Q1435.75 1521.4 1440.31 1516.68 Q1444.89 1511.93 1452.99 1511.93 Q1456.37 1511.93 1459.4 1512.77 Q1462.46 1513.6 1465.03 1515.22 L1465.03 1520.2 Q1462.44 1518 1459.52 1516.89 Q1456.6 1515.78 1453.39 1515.78 Q1447.04 1515.78 1443.85 1519.32 Q1440.68 1522.86 1440.68 1529.87 Q1440.68 1536.87 1443.85 1540.41 Q1447.04 1543.95 1453.39 1543.95 Q1455.86 1543.95 1457.81 1543.53 Q1459.75 1543.09 1461.3 1542.19 Z" fill="#000000" fill-rule="evenodd" fill-opacity="1" /><path clip-path="url(#clip040)" d="M1489.31 1525.18 Q1488.59 1524.76 1487.74 1524.57 Q1486.9 1524.37 1485.88 1524.37 Q1482.27 1524.37 1480.33 1526.73 Q1478.41 1529.06 1478.41 1533.46 L1478.41 1547.12 L1474.13 1547.12 L1474.13 1521.19 L1478.41 1521.19 L1478.41 1525.22 Q1479.75 1522.86 1481.9 1521.73 Q1484.06 1520.57 1487.13 1520.57 Q1487.57 1520.57 1488.11 1520.64 Q1488.64 1520.68 1489.29 1520.8 L1489.31 1525.18 Z" fill="#000000" fill-rule="evenodd" fill-opacity="1" /><path clip-path="url(#clip040)" d="M1505.56 1534.09 Q1500.4 1534.09 1498.41 1535.27 Q1496.42 1536.45 1496.42 1539.3 Q1496.42 1541.56 1497.9 1542.91 Q1499.4 1544.23 1501.97 1544.23 Q1505.51 1544.23 1507.64 1541.73 Q1509.8 1539.2 1509.8 1535.04 L1509.8 1534.09 L1505.56 1534.09 M1514.06 1532.33 L1514.06 1547.12 L1509.8 1547.12 L1509.8 1543.18 Q1508.34 1545.55 1506.16 1546.68 Q1503.99 1547.79 1500.84 1547.79 Q1496.86 1547.79 1494.5 1545.57 Q1492.16 1543.32 1492.16 1539.57 Q1492.16 1535.2 1495.07 1532.98 Q1498.01 1530.75 1503.82 1530.75 L1509.8 1530.75 L1509.8 1530.34 Q1509.8 1527.4 1507.85 1525.8 Q1505.93 1524.18 1502.44 1524.18 Q1500.21 1524.18 1498.11 1524.71 Q1496 1525.24 1494.06 1526.31 L1494.06 1522.37 Q1496.39 1521.47 1498.59 1521.03 Q1500.79 1520.57 1502.88 1520.57 Q1508.5 1520.57 1511.28 1523.49 Q1514.06 1526.4 1514.06 1532.33 Z" fill="#000000" fill-rule="evenodd" fill-opacity="1" /><path clip-path="url(#clip040)" d="M1533.62 1549.53 Q1531.81 1554.16 1530.1 1555.57 Q1528.38 1556.98 1525.51 1556.98 L1522.11 1556.98 L1522.11 1553.42 L1524.61 1553.42 Q1526.37 1553.42 1527.34 1552.58 Q1528.32 1551.75 1529.5 1548.65 L1530.26 1546.7 L1519.77 1521.19 L1524.29 1521.19 L1532.39 1541.47 L1540.49 1521.19 L1545 1521.19 L1533.62 1549.53 Z" fill="#000000" fill-rule="evenodd" fill-opacity="1" /><path clip-path="url(#clip040)" d="M1570.58 1543.18 L1586.9 1543.18 L1586.9 1547.12 L1564.96 1547.12 L1564.96 1543.18 Q1567.62 1540.43 1572.2 1535.8 Q1576.81 1531.15 1577.99 1529.81 Q1580.24 1527.28 1581.12 1525.55 Q1582.02 1523.79 1582.02 1522.1 Q1582.02 1519.34 1580.07 1517.61 Q1578.15 1515.87 1575.05 1515.87 Q1572.85 1515.87 1570.4 1516.63 Q1567.97 1517.4 1565.19 1518.95 L1565.19 1514.23 Q1568.01 1513.09 1570.47 1512.51 Q1572.92 1511.93 1574.96 1511.93 Q1580.33 1511.93 1583.52 1514.62 Q1586.72 1517.31 1586.72 1521.8 Q1586.72 1523.93 1585.91 1525.85 Q1585.12 1527.74 1583.01 1530.34 Q1582.44 1531.01 1579.33 1534.23 Q1576.23 1537.42 1570.58 1543.18 Z" fill="#000000" fill-rule="evenodd" fill-opacity="1" /><path clip-path="url(#clip040)" d="M1596.76 1512.56 L1615.12 1512.56 L1615.12 1516.5 L1601.05 1516.5 L1601.05 1524.97 Q1602.06 1524.62 1603.08 1524.46 Q1604.1 1524.27 1605.12 1524.27 Q1610.91 1524.27 1614.29 1527.44 Q1617.67 1530.62 1617.67 1536.03 Q1617.67 1541.61 1614.19 1544.71 Q1610.72 1547.79 1604.4 1547.79 Q1602.23 1547.79 1599.96 1547.42 Q1597.71 1547.05 1595.31 1546.31 L1595.31 1541.61 Q1597.39 1542.74 1599.61 1543.3 Q1601.83 1543.86 1604.31 1543.86 Q1608.31 1543.86 1610.65 1541.75 Q1612.99 1539.64 1612.99 1536.03 Q1612.99 1532.42 1610.65 1530.31 Q1608.31 1528.21 1604.31 1528.21 Q1602.44 1528.21 1600.56 1528.62 Q1598.71 1529.04 1596.76 1529.92 L1596.76 1512.56 Z" fill="#000000" fill-rule="evenodd" fill-opacity="1" /><path clip-path="url(#clip040)" d="M1637.46 1527.98 Q1634.31 1527.98 1632.46 1530.13 Q1630.63 1532.28 1630.63 1536.03 Q1630.63 1539.76 1632.46 1541.93 Q1634.31 1544.09 1637.46 1544.09 Q1640.61 1544.09 1642.43 1541.93 Q1644.29 1539.76 1644.29 1536.03 Q1644.29 1532.28 1642.43 1530.13 Q1640.61 1527.98 1637.46 1527.98 M1646.74 1513.32 L1646.74 1517.58 Q1644.98 1516.75 1643.18 1516.31 Q1641.39 1515.87 1639.63 1515.87 Q1635 1515.87 1632.55 1519 Q1630.12 1522.12 1629.77 1528.44 Q1631.14 1526.43 1633.2 1525.36 Q1635.26 1524.27 1637.74 1524.27 Q1642.94 1524.27 1645.95 1527.44 Q1648.99 1530.59 1648.99 1536.03 Q1648.99 1541.36 1645.84 1544.57 Q1642.69 1547.79 1637.46 1547.79 Q1631.46 1547.79 1628.29 1543.21 Q1625.12 1538.6 1625.12 1529.87 Q1625.12 1521.68 1629.01 1516.82 Q1632.9 1511.93 1639.45 1511.93 Q1641.21 1511.93 1642.99 1512.28 Q1644.8 1512.63 1646.74 1513.32 Z" fill="#000000" fill-rule="evenodd" fill-opacity="1" /><path clip-path="url(#clip040)" d="M1961.77 1542.19 L1961.77 1532.91 L1954.13 1532.91 L1954.13 1529.06 L1966.4 1529.06 L1966.4 1543.9 Q1963.69 1545.82 1960.43 1546.82 Q1957.16 1547.79 1953.46 1547.79 Q1945.36 1547.79 1940.77 1543.07 Q1936.21 1538.32 1936.21 1529.87 Q1936.21 1521.4 1940.77 1516.68 Q1945.36 1511.93 1953.46 1511.93 Q1956.84 1511.93 1959.87 1512.77 Q1962.93 1513.6 1965.5 1515.22 L1965.5 1520.2 Q1962.9 1518 1959.99 1516.89 Q1957.07 1515.78 1953.85 1515.78 Q1947.51 1515.78 1944.31 1519.32 Q1941.14 1522.86 1941.14 1529.87 Q1941.14 1536.87 1944.31 1540.41 Q1947.51 1543.95 1953.85 1543.95 Q1956.33 1543.95 1958.27 1543.53 Q1960.22 1543.09 1961.77 1542.19 Z" fill="#000000" fill-rule="evenodd" fill-opacity="1" /><path clip-path="url(#clip040)" d="M1989.78 1525.18 Q1989.06 1524.76 1988.2 1524.57 Q1987.37 1524.37 1986.35 1524.37 Q1982.74 1524.37 1980.8 1526.73 Q1978.87 1529.06 1978.87 1533.46 L1978.87 1547.12 L1974.59 1547.12 L1974.59 1521.19 L1978.87 1521.19 L1978.87 1525.22 Q1980.22 1522.86 1982.37 1521.73 Q1984.52 1520.57 1987.6 1520.57 Q1988.04 1520.57 1988.57 1520.64 Q1989.11 1520.68 1989.75 1520.8 L1989.78 1525.18 Z" fill="#000000" fill-rule="evenodd" fill-opacity="1" /><path clip-path="url(#clip040)" d="M2006.03 1534.09 Q2000.87 1534.09 1998.87 1535.27 Q1996.88 1536.45 1996.88 1539.3 Q1996.88 1541.56 1998.37 1542.91 Q1999.87 1544.23 2002.44 1544.23 Q2005.98 1544.23 2008.11 1541.73 Q2010.26 1539.2 2010.26 1535.04 L2010.26 1534.09 L2006.03 1534.09 M2014.52 1532.33 L2014.52 1547.12 L2010.26 1547.12 L2010.26 1543.18 Q2008.8 1545.55 2006.63 1546.68 Q2004.45 1547.79 2001.3 1547.79 Q1997.32 1547.79 1994.96 1545.57 Q1992.62 1543.32 1992.62 1539.57 Q1992.62 1535.2 1995.54 1532.98 Q1998.48 1530.75 2004.29 1530.75 L2010.26 1530.75 L2010.26 1530.34 Q2010.26 1527.4 2008.32 1525.8 Q2006.4 1524.18 2002.9 1524.18 Q2000.68 1524.18 1998.57 1524.71 Q1996.47 1525.24 1994.52 1526.31 L1994.52 1522.37 Q1996.86 1521.47 1999.06 1521.03 Q2001.26 1520.57 2003.34 1520.57 Q2008.97 1520.57 2011.74 1523.49 Q2014.52 1526.4 2014.52 1532.33 Z" fill="#000000" fill-rule="evenodd" fill-opacity="1" /><path clip-path="url(#clip040)" d="M2034.08 1549.53 Q2032.28 1554.16 2030.56 1555.57 Q2028.85 1556.98 2025.98 1556.98 L2022.58 1556.98 L2022.58 1553.42 L2025.08 1553.42 Q2026.84 1553.42 2027.81 1552.58 Q2028.78 1551.75 2029.96 1548.65 L2030.73 1546.7 L2020.24 1521.19 L2024.75 1521.19 L2032.86 1541.47 L2040.96 1521.19 L2045.47 1521.19 L2034.08 1549.53 Z" fill="#000000" fill-rule="evenodd" fill-opacity="1" /><path clip-path="url(#clip040)" d="M2067.07 1512.56 L2085.42 1512.56 L2085.42 1516.5 L2071.35 1516.5 L2071.35 1524.97 Q2072.37 1524.62 2073.39 1524.46 Q2074.41 1524.27 2075.42 1524.27 Q2081.21 1524.27 2084.59 1527.44 Q2087.97 1530.62 2087.97 1536.03 Q2087.97 1541.61 2084.5 1544.71 Q2081.03 1547.79 2074.71 1547.79 Q2072.53 1547.79 2070.26 1547.42 Q2068.02 1547.05 2065.61 1546.31 L2065.61 1541.61 Q2067.69 1542.74 2069.92 1543.3 Q2072.14 1543.86 2074.61 1543.86 Q2078.62 1543.86 2080.96 1541.75 Q2083.3 1539.64 2083.3 1536.03 Q2083.3 1532.42 2080.96 1530.31 Q2078.62 1528.21 2074.61 1528.21 Q2072.74 1528.21 2070.86 1528.62 Q2069.01 1529.04 2067.07 1529.92 L2067.07 1512.56 Z" fill="#000000" fill-rule="evenodd" fill-opacity="1" /><path clip-path="url(#clip040)" d="M2097.99 1543.18 L2105.63 1543.18 L2105.63 1516.82 L2097.32 1518.49 L2097.32 1514.23 L2105.59 1512.56 L2110.26 1512.56 L2110.26 1543.18 L2117.9 1543.18 L2117.9 1547.12 L2097.99 1547.12 L2097.99 1543.18 Z" fill="#000000" fill-rule="evenodd" fill-opacity="1" /><path clip-path="url(#clip040)" d="M2131.37 1543.18 L2147.69 1543.18 L2147.69 1547.12 L2125.75 1547.12 L2125.75 1543.18 Q2128.41 1540.43 2132.99 1535.8 Q2137.6 1531.15 2138.78 1529.81 Q2141.03 1527.28 2141.91 1525.55 Q2142.81 1523.79 2142.81 1522.1 Q2142.81 1519.34 2140.86 1517.61 Q2138.94 1515.87 2135.84 1515.87 Q2133.64 1515.87 2131.19 1516.63 Q2128.76 1517.4 2125.98 1518.95 L2125.98 1514.23 Q2128.8 1513.09 2131.26 1512.51 Q2133.71 1511.93 2135.75 1511.93 Q2141.12 1511.93 2144.31 1514.62 Q2147.51 1517.31 2147.51 1521.8 Q2147.51 1523.93 2146.7 1525.85 Q2145.91 1527.74 2143.8 1530.34 Q2143.23 1531.01 2140.12 1534.23 Q2137.02 1537.42 2131.37 1543.18 Z" fill="#000000" fill-rule="evenodd" fill-opacity="1" /><polyline clip-path="url(#clip042)" style="stroke:#000000; stroke-linecap:butt; stroke-linejoin:round; stroke-width:2; stroke-opacity:0.1; fill:none" points="
  232.389,1445.72 2352.76,1445.72 
  "/>
<polyline clip-path="url(#clip042)" style="stroke:#000000; stroke-linecap:butt; stroke-linejoin:round; stroke-width:2; stroke-opacity:0.1; fill:none" points="
  232.389,1109.64 2352.76,1109.64 
  "/>
<polyline clip-path="url(#clip042)" style="stroke:#000000; stroke-linecap:butt; stroke-linejoin:round; stroke-width:2; stroke-opacity:0.1; fill:none" points="
  232.389,773.567 2352.76,773.567 
  "/>
<polyline clip-path="url(#clip042)" style="stroke:#000000; stroke-linecap:butt; stroke-linejoin:round; stroke-width:2; stroke-opacity:0.1; fill:none" points="
  232.389,437.493 2352.76,437.493 
  "/>
<polyline clip-path="url(#clip042)" style="stroke:#000000; stroke-linecap:butt; stroke-linejoin:round; stroke-width:2; stroke-opacity:0.1; fill:none" points="
  232.389,101.419 2352.76,101.419 
  "/>
<polyline clip-path="url(#clip040)" style="stroke:#000000; stroke-linecap:butt; stroke-linejoin:round; stroke-width:4; stroke-opacity:1; fill:none" points="
  232.389,1486.45 232.389,47.2441 
  "/>
<polyline clip-path="url(#clip040)" style="stroke:#000000; stroke-linecap:butt; stroke-linejoin:round; stroke-width:4; stroke-opacity:1; fill:none" points="
  232.389,1445.72 257.834,1445.72 
  "/>
<polyline clip-path="url(#clip040)" style="stroke:#000000; stroke-linecap:butt; stroke-linejoin:round; stroke-width:4; stroke-opacity:1; fill:none" points="
  232.389,1109.64 257.834,1109.64 
  "/>
<polyline clip-path="url(#clip040)" style="stroke:#000000; stroke-linecap:butt; stroke-linejoin:round; stroke-width:4; stroke-opacity:1; fill:none" points="
  232.389,773.567 257.834,773.567 
  "/>
<polyline clip-path="url(#clip040)" style="stroke:#000000; stroke-linecap:butt; stroke-linejoin:round; stroke-width:4; stroke-opacity:1; fill:none" points="
  232.389,437.493 257.834,437.493 
  "/>
<polyline clip-path="url(#clip040)" style="stroke:#000000; stroke-linecap:butt; stroke-linejoin:round; stroke-width:4; stroke-opacity:1; fill:none" points="
  232.389,101.419 257.834,101.419 
  "/>
<path clip-path="url(#clip040)" d="M184.445 1431.51 Q180.834 1431.51 179.005 1435.08 Q177.2 1438.62 177.2 1445.75 Q177.2 1452.86 179.005 1456.42 Q180.834 1459.96 184.445 1459.96 Q188.079 1459.96 189.885 1456.42 Q191.713 1452.86 191.713 1445.75 Q191.713 1438.62 189.885 1435.08 Q188.079 1431.51 184.445 1431.51 M184.445 1427.81 Q190.255 1427.81 193.311 1432.42 Q196.389 1437 196.389 1445.75 Q196.389 1454.48 193.311 1459.08 Q190.255 1463.67 184.445 1463.67 Q178.635 1463.67 175.556 1459.08 Q172.501 1454.48 172.501 1445.75 Q172.501 1437 175.556 1432.42 Q178.635 1427.81 184.445 1427.81 Z" fill="#000000" fill-rule="evenodd" fill-opacity="1" /><path clip-path="url(#clip040)" d="M149.306 1122.99 L165.626 1122.99 L165.626 1126.92 L143.681 1126.92 L143.681 1122.99 Q146.343 1120.23 150.927 1115.6 Q155.533 1110.95 156.714 1109.61 Q158.959 1107.08 159.839 1105.35 Q160.741 1103.59 160.741 1101.9 Q160.741 1099.14 158.797 1097.41 Q156.876 1095.67 153.774 1095.67 Q151.575 1095.67 149.121 1096.44 Q146.691 1097.2 143.913 1098.75 L143.913 1094.03 Q146.737 1092.89 149.191 1092.32 Q151.644 1091.74 153.681 1091.74 Q159.052 1091.74 162.246 1094.42 Q165.44 1097.11 165.44 1101.6 Q165.44 1103.73 164.63 1105.65 Q163.843 1107.55 161.737 1110.14 Q161.158 1110.81 158.056 1114.03 Q154.954 1117.22 149.306 1122.99 Z" fill="#000000" fill-rule="evenodd" fill-opacity="1" /><path clip-path="url(#clip040)" d="M175.487 1092.36 L193.843 1092.36 L193.843 1096.3 L179.769 1096.3 L179.769 1104.77 Q180.788 1104.42 181.806 1104.26 Q182.825 1104.07 183.843 1104.07 Q189.63 1104.07 193.01 1107.25 Q196.389 1110.42 196.389 1115.83 Q196.389 1121.41 192.917 1124.51 Q189.445 1127.59 183.126 1127.59 Q180.95 1127.59 178.681 1127.22 Q176.436 1126.85 174.028 1126.11 L174.028 1121.41 Q176.112 1122.55 178.334 1123.1 Q180.556 1123.66 183.033 1123.66 Q187.038 1123.66 189.375 1121.55 Q191.713 1119.44 191.713 1115.83 Q191.713 1112.22 189.375 1110.12 Q187.038 1108.01 183.033 1108.01 Q181.158 1108.01 179.283 1108.43 Q177.431 1108.84 175.487 1109.72 L175.487 1092.36 Z" fill="#000000" fill-rule="evenodd" fill-opacity="1" /><path clip-path="url(#clip040)" d="M144.329 756.287 L162.686 756.287 L162.686 760.223 L148.612 760.223 L148.612 768.695 Q149.63 768.348 150.649 768.186 Q151.667 768 152.686 768 Q158.473 768 161.852 771.172 Q165.232 774.343 165.232 779.76 Q165.232 785.338 161.76 788.44 Q158.288 791.519 151.968 791.519 Q149.792 791.519 147.524 791.148 Q145.279 790.778 142.871 790.037 L142.871 785.338 Q144.954 786.472 147.177 787.028 Q149.399 787.584 151.876 787.584 Q155.88 787.584 158.218 785.477 Q160.556 783.371 160.556 779.76 Q160.556 776.148 158.218 774.042 Q155.88 771.936 151.876 771.936 Q150.001 771.936 148.126 772.352 Q146.274 772.769 144.329 773.648 L144.329 756.287 Z" fill="#000000" fill-rule="evenodd" fill-opacity="1" /><path clip-path="url(#clip040)" d="M184.445 759.366 Q180.834 759.366 179.005 762.931 Q177.2 766.473 177.2 773.602 Q177.2 780.709 179.005 784.273 Q180.834 787.815 184.445 787.815 Q188.079 787.815 189.885 784.273 Q191.713 780.709 191.713 773.602 Q191.713 766.473 189.885 762.931 Q188.079 759.366 184.445 759.366 M184.445 755.662 Q190.255 755.662 193.311 760.269 Q196.389 764.852 196.389 773.602 Q196.389 782.329 193.311 786.935 Q190.255 791.519 184.445 791.519 Q178.635 791.519 175.556 786.935 Q172.501 782.329 172.501 773.602 Q172.501 764.852 175.556 760.269 Q178.635 755.662 184.445 755.662 Z" fill="#000000" fill-rule="evenodd" fill-opacity="1" /><path clip-path="url(#clip040)" d="M144.098 420.213 L166.32 420.213 L166.32 422.204 L153.774 454.773 L148.89 454.773 L160.695 424.149 L144.098 424.149 L144.098 420.213 Z" fill="#000000" fill-rule="evenodd" fill-opacity="1" /><path clip-path="url(#clip040)" d="M175.487 420.213 L193.843 420.213 L193.843 424.149 L179.769 424.149 L179.769 432.621 Q180.788 432.273 181.806 432.111 Q182.825 431.926 183.843 431.926 Q189.63 431.926 193.01 435.098 Q196.389 438.269 196.389 443.685 Q196.389 449.264 192.917 452.366 Q189.445 455.445 183.126 455.445 Q180.95 455.445 178.681 455.074 Q176.436 454.704 174.028 453.963 L174.028 449.264 Q176.112 450.398 178.334 450.954 Q180.556 451.509 183.033 451.509 Q187.038 451.509 189.375 449.403 Q191.713 447.297 191.713 443.685 Q191.713 440.074 189.375 437.968 Q187.038 435.861 183.033 435.861 Q181.158 435.861 179.283 436.278 Q177.431 436.695 175.487 437.574 L175.487 420.213 Z" fill="#000000" fill-rule="evenodd" fill-opacity="1" /><path clip-path="url(#clip040)" d="M114.931 114.764 L122.57 114.764 L122.57 88.3985 L114.26 90.0651 L114.26 85.8059 L122.524 84.1392 L127.2 84.1392 L127.2 114.764 L134.839 114.764 L134.839 118.699 L114.931 118.699 L114.931 114.764 Z" fill="#000000" fill-rule="evenodd" fill-opacity="1" /><path clip-path="url(#clip040)" d="M154.283 87.2179 Q150.672 87.2179 148.843 90.7827 Q147.038 94.3244 147.038 101.454 Q147.038 108.56 148.843 112.125 Q150.672 115.667 154.283 115.667 Q157.917 115.667 159.723 112.125 Q161.552 108.56 161.552 101.454 Q161.552 94.3244 159.723 90.7827 Q157.917 87.2179 154.283 87.2179 M154.283 83.5142 Q160.093 83.5142 163.149 88.1207 Q166.227 92.704 166.227 101.454 Q166.227 110.181 163.149 114.787 Q160.093 119.371 154.283 119.371 Q148.473 119.371 145.394 114.787 Q142.339 110.181 142.339 101.454 Q142.339 92.704 145.394 88.1207 Q148.473 83.5142 154.283 83.5142 Z" fill="#000000" fill-rule="evenodd" fill-opacity="1" /><path clip-path="url(#clip040)" d="M184.445 87.2179 Q180.834 87.2179 179.005 90.7827 Q177.2 94.3244 177.2 101.454 Q177.2 108.56 179.005 112.125 Q180.834 115.667 184.445 115.667 Q188.079 115.667 189.885 112.125 Q191.713 108.56 191.713 101.454 Q191.713 94.3244 189.885 90.7827 Q188.079 87.2179 184.445 87.2179 M184.445 83.5142 Q190.255 83.5142 193.311 88.1207 Q196.389 92.704 196.389 101.454 Q196.389 110.181 193.311 114.787 Q190.255 119.371 184.445 119.371 Q178.635 119.371 175.556 114.787 Q172.501 110.181 172.501 101.454 Q172.501 92.704 175.556 88.1207 Q178.635 83.5142 184.445 83.5142 Z" fill="#000000" fill-rule="evenodd" fill-opacity="1" /><path clip-path="url(#clip040)" d="M18.2347 879.392 L28.3562 879.392 L28.3562 867.329 L32.9077 867.329 L32.9077 879.392 L52.2594 879.392 Q56.6199 879.392 57.8613 878.214 Q59.1026 877.005 59.1026 873.344 L59.1026 867.329 L64.0042 867.329 L64.0042 873.344 Q64.0042 880.124 61.4897 882.702 Q58.9434 885.28 52.2594 885.28 L32.9077 885.28 L32.9077 889.577 L28.3562 889.577 L28.3562 885.28 L18.2347 885.28 L18.2347 879.392 Z" fill="#000000" fill-rule="evenodd" fill-opacity="1" /><path clip-path="url(#clip040)" d="M28.3562 859.626 L28.3562 853.77 L64.0042 853.77 L64.0042 859.626 L28.3562 859.626 M14.479 859.626 L14.479 853.77 L21.895 853.77 L21.895 859.626 L14.479 859.626 Z" fill="#000000" fill-rule="evenodd" fill-opacity="1" /><path clip-path="url(#clip040)" d="M35.1993 813.761 Q31.2526 811.565 29.3747 808.51 Q27.4968 805.454 27.4968 801.316 Q27.4968 795.746 31.4117 792.723 Q35.2948 789.699 42.4881 789.699 L64.0042 789.699 L64.0042 795.587 L42.679 795.587 Q37.5546 795.587 35.072 797.401 Q32.5894 799.216 32.5894 802.94 Q32.5894 807.491 35.6131 810.133 Q38.6368 812.775 43.8567 812.775 L64.0042 812.775 L64.0042 818.663 L42.679 818.663 Q37.5228 818.663 35.072 820.477 Q32.5894 822.291 32.5894 826.079 Q32.5894 830.567 35.6449 833.208 Q38.6686 835.85 43.8567 835.85 L64.0042 835.85 L64.0042 841.739 L28.3562 841.739 L28.3562 835.85 L33.8944 835.85 Q30.616 833.845 29.0564 831.044 Q27.4968 828.243 27.4968 824.392 Q27.4968 820.509 29.4702 817.803 Q31.4436 815.066 35.1993 813.761 Z" fill="#000000" fill-rule="evenodd" fill-opacity="1" /><path clip-path="url(#clip040)" d="M44.7161 747.526 L47.5806 747.526 L47.5806 774.453 Q53.6281 774.071 56.8109 770.825 Q59.9619 767.546 59.9619 761.722 Q59.9619 758.348 59.1344 755.197 Q58.3069 752.014 56.6518 748.895 L62.1899 748.895 Q63.5267 752.046 64.227 755.356 Q64.9272 758.666 64.9272 762.072 Q64.9272 770.602 59.9619 775.599 Q54.9967 780.564 46.5303 780.564 Q37.7774 780.564 32.6531 775.853 Q27.4968 771.111 27.4968 763.09 Q27.4968 755.897 32.1438 751.727 Q36.7589 747.526 44.7161 747.526 M42.9973 753.383 Q38.1912 753.446 35.3266 756.088 Q32.4621 758.698 32.4621 763.027 Q32.4621 767.928 35.2312 770.888 Q38.0002 773.816 43.0292 774.262 L42.9973 753.383 Z" fill="#000000" fill-rule="evenodd" fill-opacity="1" /><path clip-path="url(#clip040)" d="M14.5426 703.125 Q21.8632 707.39 29.0246 709.459 Q36.186 711.528 43.5384 711.528 Q50.8908 711.528 58.1159 709.459 Q65.3091 707.358 72.5979 703.125 L72.5979 708.218 Q65.1182 712.992 57.8931 715.379 Q50.668 717.735 43.5384 717.735 Q36.4406 717.735 29.2474 715.379 Q22.0542 713.024 14.5426 708.218 L14.5426 703.125 Z" fill="#000000" fill-rule="evenodd" fill-opacity="1" /><path clip-path="url(#clip040)" d="M29.4065 669.037 L34.9447 669.037 Q33.6716 671.52 33.035 674.193 Q32.3984 676.867 32.3984 679.731 Q32.3984 684.092 33.7352 686.288 Q35.072 688.452 37.7456 688.452 Q39.7826 688.452 40.9603 686.893 Q42.1061 685.333 43.1565 680.622 L43.6021 678.617 Q44.9389 672.379 47.3897 669.769 Q49.8086 667.127 54.1691 667.127 Q59.1344 667.127 62.0308 671.074 Q64.9272 674.989 64.9272 681.864 Q64.9272 684.728 64.3543 687.848 Q63.8132 690.935 62.6992 694.372 L56.6518 694.372 Q58.3387 691.126 59.198 687.975 Q60.0256 684.824 60.0256 681.736 Q60.0256 677.599 58.6251 675.371 Q57.1929 673.143 54.6147 673.143 Q52.2276 673.143 50.9545 674.766 Q49.6813 676.357 48.5037 681.8 L48.0262 683.837 Q46.8804 689.28 44.5251 691.699 Q42.138 694.118 38.0002 694.118 Q32.9713 694.118 30.2341 690.553 Q27.4968 686.988 27.4968 680.432 Q27.4968 677.185 27.9743 674.32 Q28.4517 671.456 29.4065 669.037 Z" fill="#000000" fill-rule="evenodd" fill-opacity="1" /><path clip-path="url(#clip040)" d="M14.5426 658.724 L14.5426 653.632 Q22.0542 648.858 29.2474 646.502 Q36.4406 644.115 43.5384 644.115 Q50.668 644.115 57.8931 646.502 Q65.1182 648.858 72.5979 653.632 L72.5979 658.724 Q65.3091 654.491 58.1159 652.422 Q50.8908 650.322 43.5384 650.322 Q36.186 650.322 29.0246 652.422 Q21.8632 654.491 14.5426 658.724 Z" fill="#000000" fill-rule="evenodd" fill-opacity="1" /><path clip-path="url(#clip042)" d="
M343.358 1424.21 L343.358 1445.72 L543.192 1445.72 L543.192 1424.21 L343.358 1424.21 L343.358 1424.21  Z
  " fill="#009af9" fill-rule="evenodd" fill-opacity="1"/>
<polyline clip-path="url(#clip042)" style="stroke:#000000; stroke-linecap:butt; stroke-linejoin:round; stroke-width:4; stroke-opacity:1; fill:none" points="
  343.358,1424.21 343.358,1445.72 543.192,1445.72 543.192,1424.21 343.358,1424.21 
  "/>
<path clip-path="url(#clip042)" d="
M842.944 1300.53 L842.944 1445.72 L1042.78 1445.72 L1042.78 1300.53 L842.944 1300.53 L842.944 1300.53  Z
  " fill="#009af9" fill-rule="evenodd" fill-opacity="1"/>
<polyline clip-path="url(#clip042)" style="stroke:#000000; stroke-linecap:butt; stroke-linejoin:round; stroke-width:4; stroke-opacity:1; fill:none" points="
  842.944,1300.53 842.944,1445.72 1042.78,1445.72 1042.78,1300.53 842.944,1300.53 
  "/>
<path clip-path="url(#clip042)" d="
M1342.53 1438.99 L1342.53 1445.72 L1542.37 1445.72 L1542.37 1438.99 L1342.53 1438.99 L1342.53 1438.99  Z
  " fill="#009af9" fill-rule="evenodd" fill-opacity="1"/>
<polyline clip-path="url(#clip042)" style="stroke:#000000; stroke-linecap:butt; stroke-linejoin:round; stroke-width:4; stroke-opacity:1; fill:none" points="
  1342.53,1438.99 1342.53,1445.72 1542.37,1445.72 1542.37,1438.99 1342.53,1438.99 
  "/>
<path clip-path="url(#clip042)" d="
M1842.12 1408.08 L1842.12 1445.72 L2041.95 1445.72 L2041.95 1408.08 L1842.12 1408.08 L1842.12 1408.08  Z
  " fill="#009af9" fill-rule="evenodd" fill-opacity="1"/>
<polyline clip-path="url(#clip042)" style="stroke:#000000; stroke-linecap:butt; stroke-linejoin:round; stroke-width:4; stroke-opacity:1; fill:none" points="
  1842.12,1408.08 1842.12,1445.72 2041.95,1445.72 2041.95,1408.08 1842.12,1408.08 
  "/>
<path clip-path="url(#clip042)" d="
M543.192 1254.83 L543.192 1445.72 L743.027 1445.72 L743.027 1254.83 L543.192 1254.83 L543.192 1254.83  Z
  " fill="#e26f46" fill-rule="evenodd" fill-opacity="1"/>
<polyline clip-path="url(#clip042)" style="stroke:#000000; stroke-linecap:butt; stroke-linejoin:round; stroke-width:4; stroke-opacity:1; fill:none" points="
  543.192,1254.83 543.192,1445.72 743.027,1445.72 743.027,1254.83 543.192,1254.83 
  "/>
<path clip-path="url(#clip042)" d="
M1042.78 87.9763 L1042.78 1445.72 L1242.61 1445.72 L1242.61 87.9763 L1042.78 87.9763 L1042.78 87.9763  Z
  " fill="#e26f46" fill-rule="evenodd" fill-opacity="1"/>
<polyline clip-path="url(#clip042)" style="stroke:#000000; stroke-linecap:butt; stroke-linejoin:round; stroke-width:4; stroke-opacity:1; fill:none" points="
  1042.78,87.9763 1042.78,1445.72 1242.61,1445.72 1242.61,87.9763 1042.78,87.9763 
  "/>
<path clip-path="url(#clip042)" d="
M1542.37 1401.35 L1542.37 1445.72 L1742.2 1445.72 L1742.2 1401.35 L1542.37 1401.35 L1542.37 1401.35  Z
  " fill="#e26f46" fill-rule="evenodd" fill-opacity="1"/>
<polyline clip-path="url(#clip042)" style="stroke:#000000; stroke-linecap:butt; stroke-linejoin:round; stroke-width:4; stroke-opacity:1; fill:none" points="
  1542.37,1401.35 1542.37,1445.72 1742.2,1445.72 1742.2,1401.35 1542.37,1401.35 
  "/>
<path clip-path="url(#clip042)" d="
M2041.95 1116.36 L2041.95 1445.72 L2241.79 1445.72 L2241.79 1116.36 L2041.95 1116.36 L2041.95 1116.36  Z
  " fill="#e26f46" fill-rule="evenodd" fill-opacity="1"/>
<polyline clip-path="url(#clip042)" style="stroke:#000000; stroke-linecap:butt; stroke-linejoin:round; stroke-width:4; stroke-opacity:1; fill:none" points="
  2041.95,1116.36 2041.95,1445.72 2241.79,1445.72 2241.79,1116.36 2041.95,1116.36 
  "/>
<path clip-path="url(#clip040)" d="
M1889.54 276.658 L2282.08 276.658 L2282.08 95.2176 L1889.54 95.2176  Z
  " fill="#ffffff" fill-rule="evenodd" fill-opacity="1"/>
<polyline clip-path="url(#clip040)" style="stroke:#000000; stroke-linecap:butt; stroke-linejoin:round; stroke-width:4; stroke-opacity:1; fill:none" points="
  1889.54,276.658 2282.08,276.658 2282.08,95.2176 1889.54,95.2176 1889.54,276.658 
  "/>
<path clip-path="url(#clip040)" d="
M1913.1 179.89 L2054.45 179.89 L2054.45 131.506 L1913.1 131.506 L1913.1 179.89  Z
  " fill="#009af9" fill-rule="evenodd" fill-opacity="1"/>
<polyline clip-path="url(#clip040)" style="stroke:#000000; stroke-linecap:butt; stroke-linejoin:round; stroke-width:4; stroke-opacity:1; fill:none" points="
  1913.1,179.89 2054.45,179.89 2054.45,131.506 1913.1,131.506 1913.1,179.89 
  "/>
<path clip-path="url(#clip040)" d="M2078.01 138.418 L2097.88 138.418 L2097.88 142.353 L2082.69 142.353 L2082.69 152.538 L2096.39 152.538 L2096.39 156.473 L2082.69 156.473 L2082.69 172.978 L2078.01 172.978 L2078.01 138.418 Z" fill="#000000" fill-rule="evenodd" fill-opacity="1" /><path clip-path="url(#clip040)" d="M2105.28 138.418 L2125.14 138.418 L2125.14 142.353 L2109.96 142.353 L2109.96 152.538 L2123.66 152.538 L2123.66 156.473 L2109.96 156.473 L2109.96 172.978 L2105.28 172.978 L2105.28 138.418 Z" fill="#000000" fill-rule="evenodd" fill-opacity="1" /><path clip-path="url(#clip040)" d="M2126.93 138.418 L2156.16 138.418 L2156.16 142.353 L2143.89 142.353 L2143.89 172.978 L2139.19 172.978 L2139.19 142.353 L2126.93 142.353 L2126.93 138.418 Z" fill="#000000" fill-rule="evenodd" fill-opacity="1" /><path clip-path="url(#clip040)" d="
M1913.1 240.37 L2054.45 240.37 L2054.45 191.986 L1913.1 191.986 L1913.1 240.37  Z
  " fill="#e26f46" fill-rule="evenodd" fill-opacity="1"/>
<polyline clip-path="url(#clip040)" style="stroke:#000000; stroke-linecap:butt; stroke-linejoin:round; stroke-width:4; stroke-opacity:1; fill:none" points="
  1913.1,240.37 2054.45,240.37 2054.45,191.986 1913.1,191.986 1913.1,240.37 
  "/>
<path clip-path="url(#clip040)" d="M2100.26 200.032 L2100.26 204.592 Q2097.6 203.319 2095.24 202.694 Q2092.88 202.069 2090.68 202.069 Q2086.86 202.069 2084.77 203.55 Q2082.71 205.032 2082.71 207.763 Q2082.71 210.055 2084.08 211.235 Q2085.47 212.393 2089.31 213.11 L2092.13 213.689 Q2097.37 214.685 2099.84 217.208 Q2102.34 219.708 2102.34 223.921 Q2102.34 228.944 2098.96 231.536 Q2095.61 234.129 2089.1 234.129 Q2086.65 234.129 2083.87 233.573 Q2081.12 233.018 2078.15 231.93 L2078.15 227.115 Q2081 228.712 2083.73 229.522 Q2086.46 230.333 2089.1 230.333 Q2093.11 230.333 2095.28 228.759 Q2097.46 227.184 2097.46 224.268 Q2097.46 221.722 2095.88 220.286 Q2094.33 218.851 2090.77 218.134 L2087.92 217.578 Q2082.69 216.536 2080.35 214.314 Q2078.01 212.092 2078.01 208.134 Q2078.01 203.55 2081.23 200.911 Q2084.47 198.273 2090.14 198.273 Q2092.57 198.273 2095.1 198.712 Q2097.62 199.152 2100.26 200.032 Z" fill="#000000" fill-rule="evenodd" fill-opacity="1" /><path clip-path="url(#clip040)" d="M2113.57 229.569 L2113.57 243.319 L2109.29 243.319 L2109.29 207.532 L2113.57 207.532 L2113.57 211.467 Q2114.91 209.152 2116.95 208.041 Q2119.01 206.907 2121.86 206.907 Q2126.58 206.907 2129.52 210.657 Q2132.48 214.407 2132.48 220.518 Q2132.48 226.629 2129.52 230.379 Q2126.58 234.129 2121.86 234.129 Q2119.01 234.129 2116.95 233.018 Q2114.91 231.883 2113.57 229.569 M2128.06 220.518 Q2128.06 215.819 2126.12 213.157 Q2124.19 210.472 2120.81 210.472 Q2117.44 210.472 2115.49 213.157 Q2113.57 215.819 2113.57 220.518 Q2113.57 225.217 2115.49 227.902 Q2117.44 230.564 2120.81 230.564 Q2124.19 230.564 2126.12 227.902 Q2128.06 225.217 2128.06 220.518 Z" fill="#000000" fill-rule="evenodd" fill-opacity="1" /><path clip-path="url(#clip040)" d="M2151.32 220.425 Q2146.16 220.425 2144.17 221.606 Q2142.18 222.786 2142.18 225.634 Q2142.18 227.902 2143.66 229.245 Q2145.17 230.564 2147.74 230.564 Q2151.28 230.564 2153.41 228.064 Q2155.56 225.541 2155.56 221.374 L2155.56 220.425 L2151.32 220.425 M2159.82 218.666 L2159.82 233.458 L2155.56 233.458 L2155.56 229.522 Q2154.1 231.883 2151.93 233.018 Q2149.75 234.129 2146.6 234.129 Q2142.62 234.129 2140.26 231.907 Q2137.92 229.661 2137.92 225.911 Q2137.92 221.536 2140.84 219.314 Q2143.78 217.092 2149.59 217.092 L2155.56 217.092 L2155.56 216.675 Q2155.56 213.735 2153.62 212.138 Q2151.69 210.518 2148.2 210.518 Q2145.98 210.518 2143.87 211.05 Q2141.76 211.583 2139.82 212.647 L2139.82 208.712 Q2142.16 207.81 2144.36 207.37 Q2146.56 206.907 2148.64 206.907 Q2154.26 206.907 2157.04 209.823 Q2159.82 212.74 2159.82 218.666 Z" fill="#000000" fill-rule="evenodd" fill-opacity="1" /><path clip-path="url(#clip040)" d="M2183.62 211.513 Q2182.9 211.097 2182.04 210.911 Q2181.21 210.703 2180.19 210.703 Q2176.58 210.703 2174.63 213.064 Q2172.71 215.402 2172.71 219.8 L2172.71 233.458 L2168.43 233.458 L2168.43 207.532 L2172.71 207.532 L2172.71 211.56 Q2174.06 209.198 2176.21 208.064 Q2178.36 206.907 2181.44 206.907 Q2181.88 206.907 2182.41 206.976 Q2182.94 207.023 2183.59 207.138 L2183.62 211.513 Z" fill="#000000" fill-rule="evenodd" fill-opacity="1" /><path clip-path="url(#clip040)" d="M2204.61 208.296 L2204.61 212.323 Q2202.81 211.397 2200.86 210.935 Q2198.92 210.472 2196.83 210.472 Q2193.66 210.472 2192.06 211.444 Q2190.49 212.416 2190.49 214.36 Q2190.49 215.842 2191.62 216.698 Q2192.76 217.532 2196.18 218.296 L2197.64 218.62 Q2202.18 219.592 2204.08 221.374 Q2206 223.134 2206 226.305 Q2206 229.916 2203.13 232.022 Q2200.28 234.129 2195.28 234.129 Q2193.2 234.129 2190.93 233.712 Q2188.68 233.319 2186.18 232.508 L2186.18 228.11 Q2188.55 229.337 2190.84 229.962 Q2193.13 230.564 2195.37 230.564 Q2198.38 230.564 2200 229.546 Q2201.62 228.504 2201.62 226.629 Q2201.62 224.893 2200.44 223.967 Q2199.29 223.041 2195.33 222.184 L2193.85 221.837 Q2189.89 221.004 2188.13 219.291 Q2186.37 217.555 2186.37 214.546 Q2186.37 210.888 2188.96 208.898 Q2191.56 206.907 2196.32 206.907 Q2198.68 206.907 2200.77 207.254 Q2202.85 207.601 2204.61 208.296 Z" fill="#000000" fill-rule="evenodd" fill-opacity="1" /><path clip-path="url(#clip040)" d="M2234.96 219.43 L2234.96 221.513 L2215.37 221.513 Q2215.65 225.911 2218.01 228.226 Q2220.4 230.518 2224.63 230.518 Q2227.09 230.518 2229.38 229.916 Q2231.69 229.314 2233.96 228.11 L2233.96 232.138 Q2231.67 233.11 2229.26 233.62 Q2226.86 234.129 2224.38 234.129 Q2218.18 234.129 2214.54 230.518 Q2210.93 226.907 2210.93 220.749 Q2210.93 214.384 2214.36 210.657 Q2217.81 206.907 2223.64 206.907 Q2228.87 206.907 2231.9 210.286 Q2234.96 213.643 2234.96 219.43 M2230.7 218.18 Q2230.65 214.685 2228.73 212.601 Q2226.83 210.518 2223.68 210.518 Q2220.12 210.518 2217.97 212.532 Q2215.84 214.546 2215.51 218.203 L2230.7 218.18 Z" fill="#000000" fill-rule="evenodd" fill-opacity="1" /></svg>
